@startuml AI Role Layer Diagram For Portfolio
title AI Role Layer Diagram
top to bottom direction
package "AI" #DDDDDD
{
  package "Role Layer" #DDDDDD
  {
  'AI Behaviour Controllers'
  class MasterController

  note top of MasterController
  MasterController holds the 
  information on "what" the
  role of the NPC should be.
  end note

  note left of MasterController
  EnemyMonster and 
  PlayerCompanion scripts
  inherit from this base class
  end note

  note right of MasterController
  It holds all behaviour controllers,
  which are then managed in
  order to "act" a specific role.
  end note

  MasterController -[hidden]-> EnemyMonster
  MasterController -[hidden]-> PlayerCompanion

  class EnemyMonster <<MasterController>>
  class PlayerCompanion <<MasterController>>
  }
  note "          Condition\nIf no enemies nearby" as N1
  note "        Condition\nIf enemies nearby" as N2
  note "          Condition\nIf no enemies nearby" as N3
  package "Tactics Layer" #DDDDDD
  {

  class CombatBehaviour <<BehaviourControllerSO>>
  class IdleBehaviour <<BehaviourControllerSO>>
  class CompanionBehaviour <<BehaviourControllerSO>>

  EnemyMonster --> N1
  N1 --> IdleBehaviour

  EnemyMonster --> N2
  PlayerCompanion --> N2
  N2--> CombatBehaviour

  PlayerCompanion --> N3
  N3 --> CompanionBehaviour
  }  
}
@enduml  